<?xml version="1.0" encoding="UTF-8" standalone="no"?>
<!-- Created with Inkscape (http://www.inkscape.org/) -->

<svg
   xmlns:dc="http://purl.org/dc/elements/1.1/"
   xmlns:cc="http://creativecommons.org/ns#"
   xmlns:rdf="http://www.w3.org/1999/02/22-rdf-syntax-ns#"
   xmlns:svg="http://www.w3.org/2000/svg"
   xmlns="http://www.w3.org/2000/svg"
   xmlns:sodipodi="http://sodipodi.sourceforge.net/DTD/sodipodi-0.dtd"
   xmlns:inkscape="http://www.inkscape.org/namespaces/inkscape"
   width="24"
   height="24"
   id="svg2"
   version="1.1"
   inkscape:version="0.48.0 r9654"
   sodipodi:docname="zoom.svg"
   style="display:inline">
  <defs
     id="defs4" />
  <sodipodi:namedview
     id="base"
     pagecolor="#ffffff"
     bordercolor="#666666"
     borderopacity="1.0"
     inkscape:pageopacity="0.0"
     inkscape:pageshadow="2"
     inkscape:zoom="15.069135"
     inkscape:cx="13.415141"
     inkscape:cy="18.321036"
     inkscape:document-units="px"
     inkscape:current-layer="g3985"
     showgrid="true"
     inkscape:snap-bbox="true"
     inkscape:snap-nodes="true"
     inkscape:window-width="1024"
     inkscape:window-height="691"
     inkscape:window-x="0"
     inkscape:window-y="24"
     inkscape:window-maximized="1">
    <inkscape:grid
       type="xygrid"
       id="grid2985"
       empspacing="5"
       visible="true"
       enabled="true"
       snapvisiblegridlinesonly="true" />
  </sodipodi:namedview>
  <metadata
     id="metadata7">
    <rdf:RDF>
      <cc:Work
         rdf:about="">
        <dc:format>image/svg+xml</dc:format>
        <dc:type
           rdf:resource="http://purl.org/dc/dcmitype/StillImage" />
        <dc:title></dc:title>
      </cc:Work>
    </rdf:RDF>
  </metadata>
  <g
     transform="translate(0,-1028.3622)"
     id="g3985"
     inkscape:groupmode="layer"
     inkscape:label="loupe"
     style="display:inline">
    <path
       style="fill:#000000;fill-opacity:1;stroke:none"
       d="M 9.53125 13.46875 L 9 14 L 8 14 L 2 20 L 4 22 L 10 16 L 10 15 L 10.53125 14.46875 C 10.172265 14.166896 9.8311237 13.829441 9.53125 13.46875 z "
       transform="translate(0,1028.3622)"
       id="path3987" />
    <path
       style="font-size:medium;font-style:normal;font-variant:normal;font-weight:normal;font-stretch:normal;text-indent:0;text-align:start;text-decoration:none;line-height:normal;letter-spacing:normal;word-spacing:normal;text-transform:none;direction:ltr;block-progression:tb;writing-mode:lr-tb;text-anchor:start;baseline-shift:baseline;color:#000000;fill:#000000;fill-opacity:1;stroke:none;stroke-width:1.5;marker:none;visibility:visible;display:inline;overflow:visible;enable-background:accumulate;font-family:Sans;-inkscape-font-specification:Sans"
       d="M 15.53125 1.75 C 11.802365 1.75 8.75 4.771 8.75 8.5 C 8.75 12.2289 11.802365 15.28135 15.53125 15.28125 C 15.690304 15.281254 15.843701 15.260919 16 15.25 L 16 13.78125 C 15.842927 13.795315 15.692183 13.781256 15.53125 13.78125 C 12.612999 13.78125 10.25 11.4183 10.25 8.5 C 10.25 5.5816 12.612999 3.25 15.53125 3.25 C 18.449499 3.25 20.78125 5.5816 20.78125 8.5 C 20.78125 9.5055765 20.482308 10.45025 20 11.25 L 20 13.59375 C 21.395604 12.3489 22.28125 10.511915 22.28125 8.5 C 22.28125 4.771 19.260135 1.75 15.53125 1.75 z "
       transform="translate(0,1028.3622)"
       id="path3989" />
  </g>
  <g
     inkscape:groupmode="layer"
     id="layer4"
     inkscape:label="un"
     style="display:inline">
    <path
       style="font-size:medium;font-style:normal;font-variant:normal;font-weight:normal;font-stretch:normal;text-indent:0;text-align:start;text-decoration:none;line-height:normal;letter-spacing:normal;word-spacing:normal;text-transform:none;direction:ltr;block-progression:tb;writing-mode:lr-tb;text-anchor:start;baseline-shift:baseline;color:#000000;fill:#000000;fill-opacity:1;stroke:none;stroke-width:1.5;marker:none;visibility:visible;display:inline;overflow:visible;enable-background:accumulate;font-family:Sans;-inkscape-font-specification:Sans"
       d="m 17,9 c 0,0 0,1.564067 -2,1.564067 L 15,12 l 2,0 0,7 2,0 0,-10 z"
       id="path4568"
       inkscape:connector-curvature="0"
       sodipodi:nodetypes="cccccccc" />
  </g>
</svg>
